<?xml version="1.0" standalone="no"?>
<!DOCTYPE svg PUBLIC "-//W3C//DTD SVG 20010904//EN"
 "http://www.w3.org/TR/2001/REC-SVG-20010904/DTD/svg10.dtd">
<svg version="1.0" xmlns="http://www.w3.org/2000/svg"
 width="814.000000pt" height="252.000000pt" viewBox="0 0 814.000000 252.000000"
 preserveAspectRatio="xMidYMid meet">

<g transform="translate(0.000000,252.000000) scale(0.100000,-0.100000)"
fill="#71a5a4" stroke="none">
<path d="M1256 2195 c-3 -9 -6 -73 -6 -141 l0 -124 -35 0 -35 0 0 89 c0 49 -3
96 -6 105 -9 22 -139 23 -148 1 -11 -29 5 -45 45 -45 l39 0 0 -75 0 -75 -80 0
-80 0 0 64 c0 36 -4 76 -10 90 -9 26 -10 26 -123 26 -75 0 -117 -4 -125 -12
-7 -7 -12 -40 -12 -78 l0 -65 -58 -22 -57 -22 -45 44 c-25 25 -55 45 -65 45
-27 0 -265 -238 -265 -265 0 -11 20 -40 45 -65 l46 -46 -26 -57 -25 -57 -69 0
c-54 0 -70 -4 -75 -16 -12 -31 -7 -359 6 -372 7 -7 40 -12 78 -12 l65 0 22
-57 23 -57 -45 -46 c-25 -25 -45 -52 -45 -60 0 -17 249 -270 266 -270 5 0 30
20 54 45 24 25 49 45 54 45 6 0 34 -10 63 -22 l53 -22 0 -57 c0 -92 -5 -89
131 -89 141 0 139 -2 139 124 l0 86 80 0 80 0 0 -75 0 -75 -39 0 c-40 0 -56
-16 -45 -45 9 -22 139 -21 148 1 3 9 6 56 6 105 l0 89 35 0 35 0 0 -148 c0
-152 5 -172 41 -172 26 0 29 20 29 176 l0 144 35 0 35 0 0 -88 c0 -116 6 -124
90 -120 62 3 65 4 65 28 0 22 -5 25 -42 28 l-43 3 0 74 0 74 68 3 67 3 3 208
2 207 75 0 74 0 3 -37 c2 -31 7 -39 27 -41 13 -2 28 2 32 10 14 21 11 114 -4
126 -7 6 -56 13 -108 14 l-94 3 0 35 0 35 137 3 c141 3 157 8 142 47 -5 11
-33 15 -142 17 l-137 3 0 35 0 35 94 3 c52 1 101 8 108 14 15 12 18 105 4 126
-4 8 -19 12 -32 10 -20 -2 -25 -10 -27 -40 l-3 -38 -74 0 -75 0 -2 208 -3 207
-67 3 -68 3 0 74 0 74 43 3 c37 3 42 6 42 28 0 24 -3 25 -71 28 -85 3 -84 5
-84 -125 l0 -83 -35 0 -34 0 -3 138 -3 137 -26 3 c-17 2 -29 -3 -33 -13z m274
-865 l0 -530 -290 0 -290 0 0 530 0 530 290 0 290 0 0 -530z"/>
<path d="M1126 1520 c-16 -5 -40 -19 -53 -32 -47 -43 -53 -68 -53 -207 0 -121
1 -131 21 -141 33 -18 49 4 49 66 l0 54 80 0 79 0 3 -56 c3 -64 23 -88 52 -65
13 11 16 37 16 146 0 120 -2 135 -22 165 -43 63 -109 90 -172 70z m94 -88 c13
-11 23 -33 27 -60 l6 -42 -83 0 -83 0 6 42 c7 49 35 78 77 78 15 0 38 -8 50
-18z"/>
<path d="M1408 1519 c-16 -9 -18 -29 -18 -189 0 -171 1 -180 21 -190 43 -24
49 -2 49 189 0 197 -6 217 -52 190z"/>
<path d="M7063 2039 c-225 -37 -402 -219 -408 -416 -1 -40 -7 -78 -12 -85
-183 -230 -194 -255 -125 -284 20 -9 44 -20 52 -24 18 -9 15 -53 -6 -85 -14
-21 -13 -25 7 -44 21 -20 22 -21 5 -40 -17 -19 -17 -21 5 -50 23 -31 23 -32 7
-92 -19 -69 -13 -96 26 -126 21 -17 48 -22 156 -28 79 -4 133 -11 137 -18 4
-6 15 -43 24 -82 9 -38 19 -63 23 -55 13 34 37 202 43 295 7 114 4 121 -87
261 -105 161 -134 367 -75 534 52 149 193 270 367 316 35 10 67 21 73 26 12
10 -144 8 -212 -3z"/>
<path d="M7415 2025 c148 -41 284 -145 343 -264 43 -85 55 -157 49 -276 -6
-130 -37 -218 -119 -343 -63 -95 -63 -96 -66 -178 -4 -86 34 -368 48 -359 4 2
10 23 14 46 4 22 13 56 21 75 l14 34 116 0 c118 0 141 5 183 43 25 23 28 55
10 122 -11 40 -10 50 6 80 16 28 17 37 6 50 -10 13 -10 19 4 33 20 23 20 31 0
70 -22 45 -15 63 30 78 95 33 89 63 -38 218 -71 86 -79 101 -71 136 8 37 -18
139 -52 201 -14 27 -52 73 -83 103 -101 97 -233 146 -385 145 l-80 -1 50 -13z"/>
<path d="M7140 1916 c-109 -31 -185 -92 -229 -185 -24 -52 -26 -66 -26 -191 0
-133 1 -137 33 -203 24 -48 51 -82 97 -123 67 -59 105 -126 105 -183 l0 -31
85 0 85 0 0 465 0 465 -52 -1 c-29 0 -73 -6 -98 -13z"/>
<path d="M7407 1919 c7 -7 15 -10 18 -7 3 3 -2 9 -12 12 -14 6 -15 5 -6 -5z"/>
<path d="M7335 1909 c-4 -6 -5 -12 -2 -15 2 -3 7 2 10 11 7 17 1 20 -8 4z"/>
<path d="M7450 1907 c0 -2 6 -10 14 -16 11 -9 16 -9 22 1 4 7 4 10 -1 6 -4 -4
-14 -3 -22 3 -7 6 -13 9 -13 6z"/>
<path d="M7424 1871 c1 -17 4 -31 9 -31 10 0 9 32 -2 48 -5 9 -8 3 -7 -17z"/>
<path d="M7550 1896 c0 -2 8 -10 18 -17 15 -13 16 -12 3 4 -13 16 -21 21 -21
13z"/>
<path d="M7330 1842 c0 -12 3 -12 15 -2 8 7 15 13 15 15 0 1 -7 2 -15 2 -8 0
-15 -7 -15 -15z"/>
<path d="M7557 1814 c6 -16 19 -18 27 -5 3 5 -3 11 -13 14 -14 3 -18 1 -14 -9z"/>
<path d="M7310 1793 c0 -6 5 -15 10 -18 6 -4 8 -14 6 -23 -3 -10 -2 -23 3 -31
14 -22 7 41 -6 64 -7 11 -13 15 -13 8z"/>
<path d="M7496 1778 c4 -19 1 -29 -13 -37 -10 -6 -13 -11 -7 -11 23 0 38 29
26 53 -11 21 -11 21 -6 -5z"/>
<path d="M4751 1731 c-48 -61 -38 -68 34 -23 44 27 45 29 27 45 -25 23 -26 23
-61 -22z"/>
<path d="M7627 1743 c-4 -3 -7 -11 -7 -16 0 -6 3 -7 7 -4 3 4 18 -3 32 -15
l26 -23 -25 30 c-14 17 -25 31 -26 33 0 1 -4 -1 -7 -5z"/>
<path d="M7600 1695 c0 -12 -5 -26 -12 -33 -7 -7 -8 -12 -2 -12 16 0 33 36 23
51 -7 11 -9 9 -9 -6z"/>
<path d="M7550 1681 c0 -5 5 -13 10 -16 6 -3 10 -2 10 4 0 5 -4 13 -10 16 -5
3 -10 2 -10 -4z"/>
<path d="M7402 1654 c9 -9 21 -15 27 -13 6 2 -2 10 -17 17 -25 11 -25 11 -10
-4z"/>
<path d="M3666 1638 c-59 -16 -120 -83 -136 -146 -23 -99 14 -198 92 -242 54
-30 164 -34 216 -7 29 16 32 22 32 61 0 35 -4 45 -20 49 -15 4 -22 -3 -33 -37
-13 -40 -15 -41 -62 -44 -100 -7 -145 44 -145 163 0 116 39 165 132 165 52 0
62 -6 75 -45 6 -19 17 -31 31 -33 20 -3 22 1 22 43 0 43 -2 47 -33 60 -48 20
-125 26 -171 13z"/>
<path d="M4046 1638 c-23 -6 -57 -28 -81 -53 -97 -96 -78 -270 37 -335 35 -20
56 -25 113 -24 46 0 81 6 103 17 29 16 32 22 32 61 0 35 -4 45 -20 49 -15 4
-22 -3 -33 -37 -13 -40 -15 -41 -62 -44 -100 -7 -145 44 -145 163 0 116 39
165 132 165 52 0 62 -6 75 -45 6 -19 17 -31 31 -33 20 -3 22 1 22 43 0 43 -2
47 -33 60 -48 20 -125 26 -171 13z"/>
<path d="M4688 1636 c-62 -22 -84 -42 -112 -97 -45 -90 -31 -196 33 -260 78
-78 207 -78 283 2 88 92 65 285 -41 338 -52 27 -118 34 -163 17z m121 -52 c34
-24 51 -74 51 -149 0 -113 -37 -165 -116 -165 -46 0 -89 33 -102 79 -12 43 -8
154 7 189 24 57 109 81 160 46z"/>
<path d="M7480 1638 c6 -7 11 -21 11 -32 1 -16 2 -17 6 -4 2 9 12 19 21 21 13
4 12 5 -3 6 -12 0 -26 6 -33 11 -9 7 -9 7 -2 -2z"/>
<path d="M1987 1619 c-4 -15 1 -22 19 -29 24 -9 24 -10 24 -154 0 -135 -1
-146 -20 -156 -11 -6 -20 -20 -20 -30 0 -19 7 -20 98 -20 116 0 187 18 224 57
80 84 75 233 -10 305 -40 33 -108 48 -221 48 -81 0 -89 -2 -94 -21z m254 -55
c66 -64 64 -191 -6 -261 -28 -28 -40 -33 -79 -33 l-46 0 0 166 0 167 50 -5
c38 -4 58 -12 81 -34z"/>
<path d="M2417 1620 c-4 -16 1 -23 19 -30 24 -9 24 -10 24 -155 0 -143 0 -146
-24 -156 -16 -8 -22 -17 -19 -30 5 -18 17 -19 159 -19 l154 0 0 59 c0 50 -3
59 -20 64 -23 6 -23 5 -39 -45 l-13 -38 -59 0 -59 0 0 75 0 75 30 0 c23 0 33
-6 40 -25 10 -27 17 -30 38 -16 9 5 12 26 10 67 -2 47 -7 59 -20 62 -12 2 -21
-6 -28 -22 -7 -20 -16 -26 -40 -26 l-30 0 0 70 0 70 59 0 c57 0 58 -1 67 -32
7 -23 16 -33 29 -33 17 0 20 7 20 50 l0 50 -146 3 c-141 2 -147 2 -152 -18z"/>
<path d="M2777 1633 c-4 -3 -7 -30 -7 -60 0 -49 2 -53 23 -53 19 0 26 8 36 40
11 37 15 40 46 40 l35 0 0 -155 0 -155 -25 -10 c-15 -6 -25 -17 -25 -30 0 -18
6 -20 85 -20 79 0 85 1 85 20 0 11 -8 24 -17 27 -10 4 -20 10 -23 14 -3 4 -5
74 -5 156 l0 148 34 0 c30 0 36 -4 46 -35 8 -23 19 -36 33 -38 21 -3 22 1 22
57 l0 61 -168 0 c-93 0 -172 -3 -175 -7z"/>
<path d="M3170 1620 c0 -12 10 -25 25 -32 25 -11 25 -11 25 -155 l0 -143 -25
-10 c-15 -6 -25 -17 -25 -30 0 -19 6 -20 155 -20 l155 0 0 59 c0 45 -4 60 -16
65 -21 8 -21 8 -37 -40 l-14 -39 -61 -3 -62 -3 0 76 0 75 35 0 c29 0 36 -4 41
-25 7 -27 12 -29 32 -16 20 12 12 125 -9 129 -11 2 -19 -6 -23 -22 -5 -22 -12
-26 -41 -26 l-35 0 0 70 0 70 59 0 c59 0 59 0 71 -36 8 -24 17 -34 28 -32 13
2 18 16 20 56 l3 52 -150 0 c-145 0 -151 -1 -151 -20z"/>
<path d="M4307 1633 c-14 -14 -6 -34 18 -45 25 -11 25 -11 25 -155 l0 -143
-25 -10 c-15 -6 -25 -17 -25 -30 0 -18 6 -20 85 -20 79 0 85 2 85 20 0 13 -10
24 -25 30 l-25 10 0 143 c0 144 0 144 25 155 15 7 25 20 25 32 0 18 -6 20 -78
20 -43 0 -82 -3 -85 -7z"/>
<path d="M5007 1634 c-14 -15 -6 -35 18 -46 25 -11 25 -11 25 -155 l0 -143
-26 -10 c-16 -7 -24 -16 -22 -28 3 -13 15 -18 62 -20 41 -2 62 1 67 10 14 21
11 28 -16 38 -25 9 -25 10 -25 137 l0 127 110 -161 c92 -134 113 -160 130
-156 19 5 20 13 20 178 l0 172 25 11 c15 7 25 20 25 32 0 18 -6 20 -64 20 -56
0 -64 -3 -69 -21 -4 -15 1 -22 19 -29 24 -9 24 -12 24 -127 l-1 -118 -20 40
c-11 22 -52 87 -92 145 l-72 105 -55 3 c-31 2 -59 0 -63 -4z"/>
<path d="M5590 1621 c0 -13 10 -26 25 -33 25 -11 25 -11 25 -155 l0 -143 -25
-10 c-16 -6 -25 -17 -25 -31 0 -21 3 -21 123 -17 112 3 127 6 169 31 61 36 88
90 88 178 0 83 -28 134 -90 169 -39 21 -61 25 -167 28 -120 4 -123 4 -123 -17z
m236 -40 c41 -25 64 -77 64 -143 -1 -106 -52 -168 -140 -168 l-40 0 0 165 0
165 43 0 c23 0 55 -8 73 -19z"/>
<path d="M6020 1620 c0 -12 10 -25 25 -32 25 -11 25 -11 25 -155 l0 -143 -25
-10 c-15 -6 -25 -17 -25 -30 0 -19 6 -20 155 -20 l155 0 0 59 c0 45 -4 60 -16
65 -21 8 -21 8 -37 -40 l-14 -39 -61 -3 -62 -3 0 76 0 75 35 0 c29 0 36 -4 41
-25 7 -27 12 -29 32 -16 20 12 12 125 -9 129 -11 2 -19 -6 -23 -22 -5 -22 -12
-26 -41 -26 l-35 0 0 70 0 70 59 0 c59 0 59 0 71 -36 8 -24 17 -34 28 -32 13
2 18 16 20 56 l3 52 -150 0 c-145 0 -151 -1 -151 -20z"/>
<path d="M7337 1609 c7 -7 15 -10 18 -7 3 3 -2 9 -12 12 -14 6 -15 5 -6 -5z"/>
<path d="M7683 1579 c9 -5 17 -21 17 -34 0 -26 -15 -42 -23 -25 -3 6 -4 5 -3
-2 2 -7 15 -13 29 -13 18 -1 24 2 17 9 -6 6 -10 19 -10 31 0 23 -17 45 -34 45
-6 0 -3 -5 7 -11z"/>
<path d="M7484 1566 c4 -10 1 -26 -6 -35 -11 -14 -10 -14 6 0 15 14 16 20 6
35 -11 18 -11 18 -6 0z"/>
<path d="M7606 1535 c-9 -26 -7 -32 5 -12 6 10 9 21 6 23 -2 3 -7 -2 -11 -11z"/>
<path d="M7426 1527 c3 -10 9 -15 12 -12 3 3 0 11 -7 18 -10 9 -11 8 -5 -6z"/>
<path d="M7411 1479 c-13 -10 -19 -19 -15 -19 13 1 48 29 43 34 -2 2 -15 -4
-28 -15z"/>
<path d="M7661 1467 c-13 -21 -12 -21 5 -5 10 10 16 20 13 22 -3 3 -11 -5 -18
-17z"/>
<path d="M7722 1452 c-11 -25 -11 -25 4 -10 9 9 15 21 13 27 -2 6 -10 -2 -17
-17z"/>
<path d="M7320 1443 c0 -6 5 -15 11 -19 8 -4 8 -9 0 -17 -13 -13 -15 -54 -2
-61 5 -3 12 1 15 10 3 9 2 12 -5 8 -7 -4 -9 3 -7 17 2 17 9 23 23 21 18 -2 18
-1 3 8 -10 6 -22 18 -27 28 -6 9 -11 12 -11 5z"/>
<path d="M7559 1433 c-13 -16 -12 -17 4 -4 16 13 21 21 13 21 -2 0 -10 -8 -17
-17z"/>
<path d="M7656 1414 c-3 -8 -2 -12 4 -9 6 3 10 -1 10 -9 0 -10 8 -16 23 -15
16 1 18 2 5 6 -16 4 -22 15 -19 36 2 14 -17 7 -23 -9z"/>
<path d="M7732 1380 c0 -14 2 -19 5 -12 2 6 2 18 0 25 -3 6 -5 1 -5 -13z"/>
<path d="M7610 1370 c-9 -6 -10 -10 -3 -10 6 0 15 5 18 10 8 12 4 12 -15 0z"/>
<path d="M7666 1353 c-6 -14 -5 -15 5 -6 7 7 10 15 7 18 -3 3 -9 -2 -12 -12z"/>
<path d="M7480 1340 c-9 -6 -10 -10 -3 -10 6 0 15 5 18 10 8 12 4 12 -15 0z"/>
<path d="M7408 1333 c6 -2 18 -2 25 0 6 3 1 5 -13 5 -14 0 -19 -2 -12 -5z"/>
<path d="M7630 1315 c0 -14 2 -25 4 -25 2 0 6 11 8 25 3 14 1 25 -3 25 -5 0
-9 -11 -9 -25z"/>
<path d="M7566 1303 c-6 -14 -5 -15 5 -6 7 7 10 15 7 18 -3 3 -9 -2 -12 -12z"/>
<path d="M7690 1302 c0 -10 -4 -22 -9 -27 -6 -6 -4 -15 4 -22 10 -9 13 -4 13
28 1 21 -1 39 -4 39 -2 0 -4 -8 -4 -18z"/>
<path d="M7485 1285 c-16 -8 -23 -14 -14 -15 8 0 24 7 35 15 23 18 18 18 -21
0z"/>
<path d="M7395 1250 c-3 -5 -1 -10 4 -10 6 0 11 5 11 10 0 6 -2 10 -4 10 -3 0
-8 -4 -11 -10z"/>
<path d="M7466 1237 c3 -10 9 -15 12 -12 3 3 0 11 -7 18 -10 9 -11 8 -5 -6z"/>
<path d="M7590 1230 c-9 -6 -10 -10 -3 -10 6 0 15 5 18 10 8 12 4 12 -15 0z"/>
<path d="M7523 1213 c9 -2 25 -2 35 0 9 3 1 5 -18 5 -19 0 -27 -2 -17 -5z"/>
<path d="M7449 1193 c-9 -2 -21 -16 -28 -31 -11 -27 -11 -27 5 -4 9 12 23 22
30 22 8 0 14 5 14 10 0 6 -1 9 -2 9 -2 -1 -10 -3 -19 -6z"/>
<path d="M7659 1163 c-13 -16 -12 -17 4 -4 16 13 21 21 13 21 -2 0 -10 -8 -17
-17z"/>
<path d="M7313 1157 c4 -10 7 -25 7 -32 0 -7 6 -15 14 -18 11 -4 11 0 -2 26
-18 37 -28 50 -19 24z"/>
<path d="M7490 1136 c0 -12 -5 -27 -12 -34 -9 -9 -9 -15 0 -24 9 -9 7 -17 -11
-37 l-22 -25 31 25 c24 19 28 26 17 34 -11 8 -11 15 -1 37 7 15 20 29 28 31
10 2 7 5 -7 9 -19 5 -23 2 -23 -16z"/>
<path d="M7580 1146 c0 -8 51 -13 56 -5 3 5 -9 9 -25 9 -17 0 -31 -2 -31 -4z"/>
<path d="M4331 1091 c-48 -61 -38 -68 34 -23 44 27 45 29 27 45 -25 23 -26 23
-61 -22z"/>
<path d="M7560 1120 c-9 -6 -10 -10 -3 -10 6 0 15 5 18 10 8 12 4 12 -15 0z"/>
<path d="M7430 1090 c-8 -5 -10 -10 -5 -10 6 0 17 5 25 10 8 5 11 10 5 10 -5
0 -17 -5 -25 -10z"/>
<path d="M7320 1054 c0 -13 17 -28 43 -37 11 -4 16 -3 12 3 -3 6 -12 10 -20
10 -8 0 -19 8 -24 18 -6 9 -11 12 -11 6z"/>
<path d="M3115 1000 c-63 -19 -93 -69 -81 -133 8 -41 34 -66 106 -102 66 -33
100 -62 100 -87 0 -28 -43 -50 -92 -46 -39 3 -45 7 -63 43 -27 56 -55 51 -55
-10 0 -50 9 -59 73 -75 141 -36 252 62 188 166 -12 20 -46 45 -100 73 -60 31
-82 48 -87 67 -10 38 20 64 73 64 43 0 45 -2 60 -40 11 -27 22 -40 35 -40 15
0 18 8 18 45 0 38 -4 46 -28 59 -37 19 -110 27 -147 16z"/>
<path d="M4605 995 c-54 -19 -75 -48 -75 -101 0 -56 25 -85 115 -132 43 -23
75 -48 85 -65 14 -27 14 -29 -9 -48 -23 -19 -95 -26 -117 -11 -6 4 -17 23 -24
43 -10 28 -17 35 -32 31 -14 -3 -18 -14 -18 -53 l0 -48 52 -16 c125 -37 223 9
223 105 0 48 -44 98 -108 126 -73 31 -97 53 -97 84 0 37 27 52 82 48 37 -3 42
-6 53 -38 8 -24 19 -36 33 -38 20 -3 22 1 22 42 0 40 -4 47 -28 60 -44 23
-112 28 -157 11z"/>
<path d="M5455 1002 c-29 -3 -32 -8 -95 -175 -56 -147 -70 -174 -93 -185 -17
-8 -27 -20 -25 -30 3 -14 17 -18 76 -20 67 -3 72 -1 72 18 0 13 -9 24 -25 30
-24 9 -25 11 -12 42 13 32 15 33 83 36 67 3 71 2 82 -23 17 -37 15 -52 -8 -58
-12 -3 -20 -14 -20 -26 0 -20 5 -21 84 -21 67 0 85 3 90 16 8 22 9 20 -21 33
-25 10 -35 31 -82 164 -76 213 -71 203 -106 199z m5 -116 c0 -18 7 -53 15 -76
8 -23 15 -44 15 -46 0 -2 -22 -4 -50 -4 -27 0 -50 3 -50 7 0 17 55 153 62 153
5 0 8 -15 8 -34z"/>
<path d="M2666 984 c-9 -23 -8 -24 19 -34 l25 -10 0 -144 c0 -141 -1 -146 -22
-157 -30 -16 -29 -14 -22 -33 5 -14 26 -16 155 -16 l149 0 0 59 c0 44 -4 60
-16 65 -11 4 -19 -4 -30 -29 -7 -19 -14 -39 -14 -45 0 -6 -25 -10 -60 -10
l-60 0 0 75 0 75 30 0 c24 0 33 -6 40 -26 7 -18 15 -24 26 -20 9 3 18 6 20 6
2 0 4 27 4 59 0 44 -4 60 -16 65 -23 9 -24 8 -34 -19 -7 -19 -17 -25 -40 -25
l-30 0 0 70 0 71 57 -3 c55 -3 58 -4 67 -36 15 -53 40 -38 44 26 l3 52 -144 0
c-123 0 -146 -2 -151 -16z"/>
<path d="M3360 940 c0 -53 2 -60 20 -60 14 0 25 12 36 41 15 36 20 40 48 37
l31 -3 3 -153 3 -152 -26 -10 c-15 -6 -25 -17 -25 -30 0 -18 6 -20 85 -20 79
0 85 2 85 20 0 13 -10 24 -25 30 l-25 10 0 155 0 155 33 0 c30 0 36 -4 50 -40
11 -29 21 -40 36 -40 19 0 21 6 21 60 l0 60 -175 0 -175 0 0 -60z"/>
<path d="M3760 981 c0 -13 10 -26 25 -33 25 -11 25 -11 25 -155 l0 -143 -25
-10 c-15 -6 -25 -17 -25 -30 0 -18 6 -20 85 -20 79 0 85 2 85 20 0 13 -10 24
-25 30 l-25 10 0 155 0 155 45 0 c35 0 52 -6 70 -25 49 -48 16 -125 -53 -125
-44 0 -42 -18 13 -113 24 -43 42 -84 38 -92 -4 -12 7 -15 61 -15 60 0 66 2 66
20 0 12 -10 24 -24 29 -13 5 -36 31 -51 58 -15 26 -37 56 -49 65 -19 16 -19
18 -3 18 34 0 79 31 93 65 18 44 1 99 -39 129 -25 18 -45 21 -158 25 -126 3
-129 3 -129 -18z"/>
<path d="M4167 993 c-14 -14 -6 -34 18 -45 25 -11 25 -11 25 -155 l0 -143 -26
-10 c-16 -7 -24 -16 -22 -28 3 -15 20 -17 156 -20 l152 -3 0 60 c0 45 -4 60
-16 65 -20 8 -17 11 -35 -39 l-15 -40 -62 -3 -63 -3 3 73 3 73 31 3 c25 2 33
-2 42 -23 21 -45 37 -25 37 46 0 51 -3 64 -16 67 -11 2 -19 -6 -23 -23 -6 -22
-11 -26 -39 -23 l-32 3 0 65 0 65 60 0 c58 0 59 0 69 -33 15 -53 40 -38 44 26
l3 52 -144 0 c-79 0 -147 -3 -150 -7z"/>
<path d="M5020 980 c0 -12 10 -25 25 -32 25 -11 25 -11 25 -155 l0 -143 -25
-10 c-15 -6 -25 -17 -25 -30 0 -18 6 -20 85 -20 79 0 85 2 85 20 0 13 -10 24
-25 30 l-25 10 0 143 c0 144 0 144 25 155 15 7 25 20 25 32 0 18 -6 20 -85 20
-79 0 -85 -2 -85 -20z"/>
<path d="M7120 940 l0 -30 180 0 180 0 0 30 0 30 -180 0 -180 0 0 -30z"/>
<path d="M7140 860 l0 -30 155 0 155 0 0 30 0 30 -155 0 -155 0 0 -30z"/>
<path d="M7160 770 l0 -30 135 0 135 0 0 30 0 30 -135 0 -135 0 0 -30z"/>
</g>
</svg>
