<?xml version="1.0" standalone="no"?>
<!DOCTYPE svg PUBLIC "-//W3C//DTD SVG 20010904//EN"
 "http://www.w3.org/TR/2001/REC-SVG-20010904/DTD/svg10.dtd">
<svg version="1.0" xmlns="http://www.w3.org/2000/svg"
 width="814.000000pt" height="252.000000pt" viewBox="0 0 814.000000 252.000000"
 preserveAspectRatio="xMidYMid meet">

<g transform="translate(0.000000,252.000000) scale(0.100000,-0.100000)"
fill="#000000" stroke="none">
<path d="M748 1973 l-3 -66 -70 -29 c-38 -17 -82 -35 -97 -41 -26 -10 -31 -8
-71 31 -23 23 -47 42 -53 42 -12 0 -174 -162 -174 -175 0 -5 19 -29 42 -52 39
-40 41 -45 31 -71 -53 -127 -67 -158 -77 -164 -6 -4 -37 -8 -68 -8 l-58 0 0
-130 0 -129 66 -3 c47 -2 69 -7 74 -18 19 -38 70 -166 70 -175 0 -5 -19 -29
-42 -52 l-42 -43 89 -90 89 -90 41 40 c40 39 79 51 101 31 5 -4 42 -21 82 -36
l72 -27 0 -64 0 -64 59 0 c71 0 73 3 70 112 l-2 78 -31 0 c-104 0 -255 68
-340 154 -106 106 -156 229 -157 383 0 154 55 279 171 387 89 82 171 118 321
141 l36 5 2 69 c1 38 -1 80 -5 95 -6 24 -10 26 -65 26 l-58 0 -3 -67z" fill="#FFFFFF"/>
<path d="M7075 1974 c-196 -41 -321 -130 -392 -279 -30 -65 -36 -89 -38 -149
l-1 -73 -82 -104 c-78 -98 -88 -118 -83 -164 2 -23 14 -32 64 -45 41 -12 46
-28 22 -74 -19 -37 -19 -56 2 -71 15 -11 15 -14 0 -35 -15 -21 -15 -25 3 -48
24 -29 25 -51 6 -113 -17 -56 -7 -82 43 -116 31 -21 46 -23 152 -23 137 0 131
4 159 -114 l17 -70 17 92 c9 51 22 139 28 197 14 129 7 158 -70 275 -66 102
-84 143 -106 237 -75 331 92 582 445 668 l54 13 -110 0 c-60 0 -119 -2 -130
-4z" fill="#FFFFFF"/>
<path d="M7352 1976 c3 -4 32 -14 65 -23 383 -99 521 -526 284 -877 -69 -101
-81 -133 -81 -206 0 -63 33 -301 49 -355 l9 -30 1 31 c1 30 11 67 33 127 l10
27 109 0 c192 0 248 46 204 170 -14 41 -14 45 6 78 18 31 19 39 8 60 -12 20
-11 25 4 33 21 12 21 28 2 65 -22 43 -19 63 13 74 63 23 72 32 72 69 0 30 -15
55 -89 150 -83 106 -88 115 -80 145 11 38 -9 123 -47 198 -56 110 -192 212
-325 242 -71 16 -258 32 -247 22z" fill="#FFFFFF"/>
<path d="M7210 1860 c-250 -32 -373 -210 -331 -479 18 -112 42 -157 132 -247
80 -79 109 -133 109 -201 0 -22 3 -23 85 -23 l85 0 0 213 c0 116 1 331 2 477
2 225 0 265 -13 266 -8 1 -39 -2 -69 -6z" fill="#FFFFFF"/>
<path d="M7345 1846 c-24 -17 -30 -84 -21 -226 6 -92 6 -93 2 -258 -4 -120 -2
-131 10 -106 11 21 12 29 3 35 -17 10 -2 42 16 35 44 -18 47 -17 15 5 -31 22
-35 30 -38 76 -2 30 3 66 13 88 14 35 14 39 -1 50 -14 10 -16 22 -10 71 8 71
24 88 81 80 34 -4 36 -4 15 5 -14 6 -40 7 -59 4 -23 -4 -37 -2 -42 6 -10 16
15 64 37 73 9 4 14 9 11 13 -4 3 -13 0 -22 -7 -13 -11 -15 -8 -15 18 0 48 63
61 80 16 14 -35 13 -42 -7 -47 -14 -4 -13 -5 4 -6 27 -1 38 15 23 34 -7 8 -10
21 -7 29 10 25 -57 35 -88 12z" fill="#FFFFFF"/>
<path d="M7467 1818 c10 -11 13 -26 9 -43 -4 -14 -2 -25 4 -25 5 0 10 9 10 20
0 11 6 20 13 20 9 0 8 3 -2 9 -19 12 -5 31 24 31 14 0 32 -11 44 -26 23 -30
29 -19 7 12 -11 15 -27 19 -69 19 -52 0 -55 -1 -40 -17z"/>
<path d="M772 1754 c-90 -24 -157 -63 -219 -128 -125 -130 -164 -307 -102
-470 25 -68 78 -148 91 -139 6 3 8 2 5 -4 -14 -23 115 -112 199 -138 27 -8 66
-15 87 -15 l37 0 0 455 0 455 -22 -1 c-13 0 -47 -7 -76 -15z" fill="#FFFFFF"/>
<path d="M7580 1759 c0 -6 -7 -8 -17 -5 -15 6 -16 5 -1 -11 8 -10 18 -25 21
-33 3 -8 6 2 6 23 1 20 -1 37 -4 37 -3 0 -5 -5 -5 -11z" fill="#FFFFFF"/>
<path d="M7492 1716 c11 -25 10 -30 -6 -42 -11 -7 -23 -11 -27 -8 -5 3 -9 1
-9 -5 0 -5 5 -13 10 -16 6 -3 10 -2 10 4 0 5 13 12 30 16 16 4 32 11 35 16 4
5 -1 6 -9 3 -11 -4 -16 0 -16 14 0 11 -7 25 -16 32 -13 12 -14 10 -2 -14z" fill="#FFFFFF"/>
<path d="M7619 1726 c7 -8 11 -27 9 -43 -2 -20 3 -31 17 -38 36 -19 51 -59 39
-104 -6 -22 -7 -38 -3 -35 12 7 30 -32 23 -50 -9 -23 -21 -20 -27 6 -4 12 -9
20 -11 17 -3 -3 0 -19 6 -37 10 -27 9 -34 -7 -51 -10 -12 -14 -21 -9 -21 5 0
20 17 33 37 l23 36 13 -24 c17 -31 3 -58 -34 -65 -16 -3 -34 -16 -41 -29 -7
-13 -22 -28 -34 -33 -11 -6 -15 -11 -8 -11 7 -1 23 10 36 24 20 22 25 23 30 9
10 -26 7 -34 -19 -46 -19 -9 -25 -19 -25 -43 0 -47 -29 -77 -81 -85 -43 -7
-43 -8 -8 -9 46 -1 84 27 100 77 14 43 49 91 67 91 6 1 12 5 12 11 0 5 -6 7
-13 4 -8 -3 -19 1 -26 9 -9 12 -7 16 11 21 30 7 51 -20 43 -54 -5 -20 -4 -23
6 -12 11 10 11 19 2 43 -9 22 -9 38 -2 50 7 13 5 27 -4 46 -8 16 -18 43 -22
61 -3 17 -11 32 -16 32 -5 0 -6 19 -3 43 5 37 2 47 -25 81 -17 21 -31 47 -31
57 0 25 -11 49 -22 49 -6 0 -6 -6 1 -14z" fill="#FFFFFF" />
<path d="M7382 1653 c-11 -11 -9 -13 10 -13 31 0 42 -9 72 -52 19 -29 25 -48
23 -85 -2 -47 -3 -48 -34 -47 -26 1 -30 -1 -25 -18 6 -23 -19 -42 -57 -42 -13
-1 -26 -8 -29 -16 -5 -13 -3 -13 11 -1 9 7 24 11 32 7 9 -3 25 0 35 7 30 18
55 -2 55 -46 0 -19 3 -33 8 -30 4 2 7 11 7 20 0 13 8 14 40 9 25 -4 40 -2 40
4 0 6 10 15 23 20 15 6 17 9 6 9 -9 1 -22 -6 -29 -14 -17 -21 -65 -8 -101 27
-34 34 -37 48 -10 48 24 0 45 25 37 45 -9 25 11 65 33 65 11 0 22 4 26 9 3 6
-9 8 -29 4 -32 -5 -36 -2 -60 36 -15 22 -30 41 -35 41 -5 0 -16 6 -23 13 -11
12 -16 12 -26 0z" fill="#FFFFFF"/>
<path d="M7555 1635 c0 -21 9 -43 22 -57 51 -54 50 -130 -2 -158 -14 -7 -23
-15 -20 -18 2 -3 16 3 30 12 21 14 29 15 41 5 9 -7 14 -8 14 -1 0 6 -5 14 -10
17 -14 9 -2 75 19 99 15 18 15 18 -7 7 -19 -10 -23 -9 -34 14 -9 21 -8 28 7
45 10 11 13 20 7 20 -7 0 -12 6 -12 14 0 8 -4 17 -8 20 -4 2 -6 -11 -4 -31 3
-27 1 -34 -9 -31 -8 3 -15 18 -17 34 -5 42 -17 49 -17 9z" fill="#FFFFFF" />
<path d="M7398 1587 c16 -21 2 -84 -21 -96 -15 -8 -16 -10 -4 -6 10 3 24 5 31
5 8 0 11 12 8 35 -3 27 -1 35 12 35 24 0 19 13 -10 27 -20 9 -23 9 -16 0z"/>
<path d="M7438 1283 c-3 -13 -14 -23 -25 -23 -10 0 -25 -5 -33 -10 -10 -7 1
-8 35 -4 77 8 95 13 95 26 0 9 -3 9 -12 0 -20 -20 -46 -14 -50 11 l-3 22 -7
-22z" fill="#FFFFFF" />
<path d="M7566 1261 c8 -38 -7 -54 -42 -45 -12 3 -25 1 -28 -5 -9 -14 -72 -14
-99 0 -22 12 -22 11 -4 -9 12 -13 15 -22 8 -27 -6 -3 -11 -12 -11 -18 0 -7 8
-2 18 9 17 22 37 27 160 42 14 2 16 51 2 72 -7 11 -8 5 -4 -19z"/>
<path d="M7708 1249 c-10 -5 -18 -21 -18 -34 0 -13 -6 -26 -12 -28 -8 -3 -6
-6 5 -6 19 -1 23 -31 6 -64 -10 -22 -10 -22 6 -2 12 15 15 31 10 63 -5 34 -3
48 11 63 19 21 17 23 -8 8z" fill="#FFFFFF" />
<path d="M7312 1190 c0 -19 2 -27 5 -17 2 9 2 25 0 35 -3 9 -5 1 -5 -18z" fill="#FFFFFF"/>
<path d="M7468 1144 c3 -19 0 -26 -16 -30 -11 -3 -25 -17 -31 -30 -9 -20 -18
-24 -51 -24 -33 0 -42 4 -50 23 -6 14 -7 -2 -3 -48 4 -60 9 -73 32 -92 14 -13
36 -23 49 -23 27 0 73 22 92 45 9 11 22 14 41 10 40 -9 86 18 94 55 4 16 10
30 14 30 4 0 16 7 27 16 18 15 18 15 -3 5 -32 -16 -79 -13 -93 4 -7 9 -15 13
-18 10 -3 -3 3 -11 13 -19 19 -14 13 -36 -11 -36 -8 0 -14 -4 -14 -10 0 -16
19 -11 37 10 36 42 59 13 24 -31 -19 -24 -66 -31 -105 -16 -15 6 -16 10 -6 22
7 9 10 18 6 22 -3 3 -6 1 -6 -5 0 -23 -30 -12 -31 11 -1 20 -2 20 -6 2 -3 -11
-15 -28 -26 -37 -12 -10 -17 -18 -10 -18 6 0 15 5 18 10 8 14 18 13 40 -4 19
-14 19 -15 -5 -35 -36 -29 -71 -34 -108 -16 -25 13 -32 23 -32 46 0 27 3 30
23 23 21 -6 21 -6 -3 14 l-25 21 42 1 c34 0 46 5 59 25 9 14 23 25 30 25 8 0
18 8 21 18 4 9 10 19 14 22 5 3 0 11 -10 17 -16 10 -17 8 -13 -13z" fill="#FFFFFF"/>
<path d="M7320 1133 c0 -12 5 -25 10 -28 13 -8 13 15 0 35 -8 12 -10 11 -10
-7z" fill="#FFFFFF"/>
<path d="M7490 1069 c0 -13 14 -17 35 -9 17 6 16 7 -8 12 -15 3 -27 2 -27 -3z" fill="#FFFFFF"/>
<path d="M7120 860 l0 -30 180 0 180 0 0 30 0 30 -180 0 -180 0 0 -30z" fill="#FFFFFF"/>
<path d="M7137 804 c-13 -13 -7 -52 9 -58 20 -8 127 -8 229 0 79 7 81 7 80 33
l0 26 -156 3 c-85 1 -158 -1 -162 -4z" fill="#FFFFFF"/>
<path d="M7152 690 l2 -30 138 0 138 0 0 30 0 30 -140 0 -140 0 2 -30z"/>
</g>
</svg>
