<?xml version="1.0" standalone="no"?>
<!DOCTYPE svg PUBLIC "-//W3C//DTD SVG 20010904//EN"
 "http://www.w3.org/TR/2001/REC-SVG-20010904/DTD/svg10.dtd">
<svg version="1.0" xmlns="http://www.w3.org/2000/svg"
 width="814" height="252" viewBox="0 0 814 252"
 preserveAspectRatio="none" fill="none">

<g transform="translate(0.000000,252.000000) scale(0.100000,-0.100000)"
fill="#000000" stroke="none">
<path d="M0 1821 c0 -384 3 -701 7 -705 3 -3 12 -1 20 5 21 18 15 -6 -7 -26
-22 -20 -26 -55 -8 -73 9 -9 9 -15 0 -24 -7 -7 -12 -27 -12 -46 0 -29 2 -33
14 -22 8 6 16 21 18 33 2 12 9 22 16 22 7 0 16 6 21 13 14 23 184 192 193 192
19 0 4 -20 -78 -103 -91 -93 -110 -136 -23 -51 28 27 68 66 89 86 21 20 40 35
43 32 9 -9 -18 -53 -40 -65 -13 -7 -23 -18 -23 -24 0 -7 -9 -20 -20 -30 -11
-10 -20 -14 -20 -10 0 5 -13 -4 -30 -20 -16 -16 -30 -33 -30 -39 0 -5 -10 -20
-21 -32 -20 -22 -23 -22 -46 -7 -19 13 -27 13 -36 4 -9 -10 -8 -16 7 -27 19
-14 19 -15 -7 -42 -23 -24 -27 -37 -27 -84 0 -45 3 -57 17 -60 16 -3 16 -4 0
-20 -9 -9 -17 -31 -17 -49 l0 -32 59 58 c67 66 115 98 59 38 -69 -72 -39 -56
52 27 50 46 94 80 98 76 3 -4 -13 -25 -36 -47 -23 -22 -42 -46 -42 -54 0 -7
-15 -26 -32 -42 -18 -17 -58 -56 -88 -87 -50 -51 -53 -58 -42 -77 12 -18 11
-24 -7 -43 -12 -12 -21 -31 -21 -41 0 -17 1 -17 23 1 l22 19 -22 -26 c-16 -18
-23 -38 -23 -67 0 -38 2 -42 25 -42 24 0 90 60 90 82 0 4 17 22 37 40 20 18
38 42 40 53 2 11 11 19 21 19 9 -1 34 17 55 40 48 52 132 126 143 126 22 0 3
-26 -75 -101 -86 -82 -93 -98 -58 -126 13 -10 11 -16 -12 -43 -14 -17 -26 -35
-26 -40 0 -4 -8 -10 -17 -14 -10 -3 -26 -11 -36 -18 -18 -13 -25 -8 -41 27 -3
6 -13 1 -23 -11 -10 -11 -25 -23 -33 -27 -8 -3 207 -6 478 -6 l492 -1 0 -155
0 -155 3540 0 3540 0 -2 1213 c-3 1144 -4 1212 -20 1211 -16 -2 -16 1 2 26 11
16 20 37 20 47 0 17 -8 20 -48 22 -48 1 -49 1 -124 -79 -42 -44 -82 -80 -89
-80 -14 0 0 17 79 100 74 78 47 74 -34 -4 -37 -36 -71 -66 -76 -66 -18 0 -6
21 42 72 l50 53 -103 3 -102 3 -46 -51 c-32 -35 -49 -48 -54 -39 -5 7 1 19 16
30 13 9 35 27 48 38 l24 21 -3862 0 -3861 0 0 -699z m7735 389 c-10 -11 -23
-20 -28 -20 -6 0 -2 9 8 20 10 11 23 20 28 20 6 0 2 -9 -8 -20z m225 17 c0 -2
-10 -12 -22 -23 l-23 -19 19 23 c18 21 26 27 26 19z m-3967 -352 c-5 -16 -33
-21 -33 -7 0 13 22 32 31 26 5 -2 6 -11 2 -19z m173 -4 c-4 -6 -14 -11 -22
-11 -12 0 -13 4 -3 21 7 14 14 18 21 11 6 -6 7 -15 4 -21z m-588 -33 c-3 -7
-22 -16 -44 -19 l-39 -6 38 -2 c34 -1 37 -3 37 -31 0 -30 -1 -30 -55 -30 -61
0 -77 19 -17 21 l37 2 -33 6 c-18 3 -33 9 -32 14 0 4 0 18 0 32 0 24 3 25 56
25 40 0 55 -4 52 -12z m122 -12 c0 -29 -16 -43 -55 -49 -27 -4 -26 -4 8 -6 23
0 37 -5 35 -12 -2 -6 -7 -10 -11 -10 -4 1 -28 1 -53 1 l-46 0 7 43 c4 23 9 45
12 50 2 4 26 7 54 7 45 0 49 -2 49 -24z m124 10 c-3 -8 -22 -16 -42 -18 -33
-3 -37 -6 -40 -35 -4 -44 -32 -53 -32 -10 0 69 7 77 66 77 42 0 52 -3 48 -14z
m44 -17 c6 -48 12 -56 28 -35 8 11 14 30 14 43 0 14 6 23 15 23 16 0 19 -19 9
-69 -6 -28 -10 -31 -44 -31 -41 0 -50 13 -50 73 0 35 24 32 28 -4z m116 -16
c-6 -45 -25 -74 -33 -52 -1 6 0 30 4 55 4 29 11 44 21 44 12 0 14 -9 8 -47z
m126 32 c0 -11 -11 -15 -40 -15 -33 0 -40 -3 -40 -20 0 -16 7 -20 35 -20 24 0
35 -5 35 -15 0 -11 -12 -15 -50 -15 l-50 0 0 34 c0 58 7 66 61 66 37 0 49 -4
49 -15z m50 3 c0 -44 -14 -88 -28 -88 -11 0 -13 8 -8 38 3 20 6 43 6 50 0 6 7
12 15 12 8 0 15 -6 15 -12z m122 -33 c-2 -22 -6 -43 -9 -47 -2 -5 -26 -8 -54
-8 -47 0 -49 1 -49 28 0 65 8 73 64 70 l51 -3 -3 -40z m-1144 -222 c-4 -22
-58 -31 -58 -10 0 20 10 27 37 27 18 0 24 -5 21 -17z m2362 13 c0 -22 -17 -36
-41 -36 -31 0 -32 1 -23 24 5 14 64 24 64 12z m-3994 -92 c24 -24 26 -30 22
-106 -4 -103 -21 -120 -112 -116 l-61 3 -3 109 c-1 61 0 116 2 123 4 9 25 13
66 13 52 0 65 -4 86 -26z m289 1 c0 -18 -8 -21 -75 -25 -67 -4 -75 -7 -75 -25
0 -18 8 -20 68 -23 63 -3 67 -4 67 -27 0 -23 -4 -24 -67 -27 -55 -2 -68 -6
-71 -20 -3 -16 5 -18 66 -18 73 0 100 -14 88 -45 -5 -13 -24 -15 -113 -13
l-108 3 -3 109 c-1 61 0 116 2 123 4 11 30 13 113 11 100 -3 108 -4 108 -23z
m250 0 c0 -14 -8 -21 -30 -25 l-30 -5 -5 -95 -5 -95 -30 0 -30 0 -3 90 c-3 93
-8 105 -49 105 -23 0 -32 27 -16 44 4 4 50 5 103 4 87 -3 95 -5 95 -23z m270
0 c0 -18 -8 -21 -75 -25 -67 -4 -75 -7 -75 -25 0 -18 8 -20 68 -23 63 -3 67
-4 67 -27 0 -23 -4 -24 -67 -27 -55 -2 -68 -6 -71 -20 -3 -16 5 -18 66 -18 73
0 98 -13 86 -44 -6 -14 -21 -16 -113 -14 l-106 3 -3 109 c-1 61 0 116 2 123 4
11 30 13 113 11 100 -3 108 -4 108 -23z m265 0 c0 -23 -3 -24 -72 -27 l-73 -3
-3 -67 -3 -67 73 -3 c71 -3 73 -4 76 -30 l3 -28 -86 0 c-78 0 -88 2 -110 25
-22 21 -25 33 -25 98 0 60 4 79 21 101 19 25 25 26 110 26 88 0 89 0 89 -25z
m270 0 c0 -23 -3 -24 -72 -27 l-73 -3 -5 -58 c-3 -32 -3 -62 0 -67 3 -5 37
-10 75 -12 67 -3 70 -4 70 -28 0 -24 -2 -25 -81 -28 -69 -2 -84 0 -107 18 -25
20 -27 26 -27 103 0 69 3 84 22 104 19 21 30 23 110 23 87 0 88 0 88 -25z
m110 -101 l0 -125 -27 3 -28 3 -3 123 -3 122 31 0 30 0 0 -126z m200 108 c27
-22 39 -120 21 -174 -19 -58 -94 -77 -145 -37 -24 19 -26 26 -26 102 0 69 3
84 22 104 27 29 95 32 128 5z m238 -79 c2 -84 5 -93 22 -93 17 0 20 9 22 93
l3 92 30 0 30 0 0 -120 0 -120 -80 0 -80 0 -3 93 c-1 50 -7 92 -12 92 -6 0
-13 1 -17 3 -5 1 -10 -41 -13 -93 l-5 -95 -30 0 -30 0 -3 109 c-1 61 0 116 2
123 4 10 25 13 83 11 l78 -3 3 -92z m427 72 c22 -21 25 -33 25 -100 0 -68 -3
-79 -25 -101 -22 -22 -32 -25 -88 -22 l-62 3 -3 109 c-1 61 0 116 2 123 4 9
25 13 66 13 51 0 65 -4 85 -25z m290 0 c0 -18 -8 -21 -72 -25 -77 -5 -89 -11
-80 -35 5 -11 22 -15 71 -15 67 0 80 -7 70 -34 -4 -11 -23 -16 -72 -18 -52 -2
-67 -6 -67 -18 0 -11 14 -16 55 -18 86 -4 102 -9 98 -35 -3 -21 -7 -22 -113
-22 l-110 0 -3 109 c-1 61 0 116 2 123 4 11 30 13 113 11 100 -3 108 -4 108
-23z m390 0 c0 -18 -8 -21 -72 -25 -77 -5 -89 -11 -80 -35 5 -11 22 -15 71
-15 67 0 80 -7 70 -34 -4 -11 -23 -16 -72 -18 -52 -2 -67 -6 -67 -18 0 -11 14
-16 55 -18 86 -4 102 -9 98 -35 -3 -21 -7 -22 -113 -22 l-110 0 -3 109 c-1 61
0 116 2 123 4 11 30 13 113 11 100 -3 108 -4 108 -23z m270 0 c0 -18 -8 -21
-75 -25 -67 -4 -75 -7 -75 -25 0 -17 8 -20 57 -23 48 -3 61 -7 78 -30 26 -32
21 -78 -12 -105 -17 -15 -36 -17 -107 -15 -80 3 -86 5 -89 25 -4 26 12 31 98
35 41 2 55 7 55 18 0 11 -15 16 -59 20 -45 4 -62 11 -77 29 -25 30 -24 62 2
95 20 26 24 27 113 24 83 -3 91 -5 91 -23z m250 0 c0 -14 -8 -21 -30 -25 l-30
-5 -5 -95 -5 -95 -30 0 -30 0 -3 90 c-3 93 -8 105 -49 105 -23 0 -32 27 -16
44 4 4 50 5 103 4 87 -3 95 -5 95 -23z m242 17 c31 -19 37 -92 8 -92 -25 0
-25 -30 0 -46 43 -28 31 -109 -16 -102 -20 2 -25 10 -29 48 l-5 45 -40 0 -40
0 -5 -45 c-5 -42 -7 -45 -35 -45 l-30 0 -3 109 c-1 61 0 116 2 123 6 14 171
19 193 5z m293 -17 c0 -23 -3 -24 -72 -27 -65 -3 -73 -5 -73 -23 0 -18 8 -20
68 -23 64 -3 68 -4 65 -25 -3 -19 -10 -23 -68 -27 -51 -4 -66 -9 -68 -22 -3
-15 7 -18 70 -20 72 -3 73 -4 76 -31 l3 -28 -108 3 -108 3 -3 109 c-1 61 0
116 2 123 4 10 33 13 111 13 105 0 105 0 105 -25z m270 0 c0 -23 -3 -24 -72
-27 -65 -3 -73 -5 -73 -23 0 -17 8 -21 58 -25 67 -6 87 -24 87 -76 0 -60 -34
-77 -145 -72 -67 3 -70 4 -70 28 0 24 3 25 75 30 41 3 74 8 73 13 -2 4 -3 12
-3 17 0 6 -23 10 -52 10 -64 0 -98 26 -98 77 0 58 26 73 130 73 89 0 90 0 90
-25z m230 -101 l0 -125 -27 3 -28 3 -3 123 -3 122 31 0 30 0 0 -126z m200 108
c20 -16 24 -31 28 -100 6 -109 -1 -134 -36 -130 -22 2 -28 8 -30 36 -4 35 -29
54 -42 31 -5 -7 -6 -17 -4 -21 3 -5 2 -17 -1 -29 -5 -15 -14 -19 -33 -17 -27
3 -27 3 -30 102 -3 90 -1 101 19 122 28 30 96 33 129 6z m-5820 -155 c0 -2
-12 -14 -27 -28 l-28 -24 24 28 c23 25 31 32 31 24z m-220 -10 c0 -2 -10 -12
-22 -23 l-23 -19 19 23 c18 21 26 27 26 19z m-160 -151 c0 -2 -8 -10 -17 -17
-16 -13 -17 -12 -4 4 13 16 21 21 21 13z m450 -84 c0 -4 -38 -43 -85 -86 -47
-42 -85 -83 -85 -91 0 -7 -7 -15 -15 -19 -8 -3 -15 -11 -15 -17 0 -7 8 -5 20
6 32 29 46 4 15 -25 -24 -22 -26 -23 -42 -7 -16 16 -18 15 -40 -5 -13 -12 -23
-17 -23 -11 0 6 7 16 15 23 8 7 15 18 15 24 0 6 19 24 43 41 23 16 73 62 111
102 65 68 86 84 86 65z m70 -297 c-10 -10 -20 -11 -30 -5 -13 8 -12 11 5 24
25 18 46 3 25 -19z m-450 5 c-6 -11 -16 -20 -22 -20 -6 0 -3 9 7 20 10 11 20
20 22 20 2 0 -1 -9 -7 -20z m63 -163 c-15 -19 -30 -32 -32 -30 -5 3 49 63 57
63 2 0 -9 -15 -25 -33z m1864 -19 c-2 -13 -4 -5 -4 17 -1 22 1 32 4 23 2 -10
2 -28 0 -40z m516 27 c-7 -21 -12 -19 -10 4 0 11 5 18 9 15 4 -3 5 -11 1 -19z
m337 -10 c0 -28 -4 -35 -19 -35 -11 0 -22 4 -25 9 -4 5 3 7 15 4 16 -5 20 -1
19 13 -3 26 -1 44 5 44 3 0 5 -16 5 -35z m-220 15 c0 -5 -4 -10 -10 -10 -5 0
-10 5 -10 10 0 6 5 10 10 10 6 0 10 -4 10 -10z m2280 0 c0 -5 -4 -10 -10 -10
-5 0 -10 5 -10 10 0 6 5 10 10 10 6 0 10 -4 10 -10z m40 0 c0 -5 -4 -10 -10
-10 -5 0 -10 5 -10 10 0 6 5 10 10 10 6 0 10 -4 10 -10z m583 -15 c-3 -9 0
-22 7 -30 7 -9 8 -15 2 -15 -5 0 -13 7 -16 16 -9 24 -7 56 4 49 5 -3 7 -12 3
-20z m-5363 -42 c-29 -32 -59 -64 -66 -72 -7 -7 -17 -10 -23 -7 -12 8 17 46
36 46 7 0 13 6 13 13 1 10 77 76 89 77 2 0 -20 -26 -49 -57z m1882 32 c-2 -14
-6 -25 -8 -25 -2 0 -4 11 -4 25 0 14 4 25 9 25 4 0 6 -11 3 -25z m78 -1 c0
-19 -28 -30 -42 -16 -8 8 -4 9 12 5 20 -5 22 -3 18 15 -4 12 -2 20 3 16 5 -3
9 -12 9 -20z m30 22 c0 -3 -4 -8 -10 -11 -5 -3 -10 -1 -10 4 0 6 5 11 10 11 6
0 10 -2 10 -4z m32 -21 c-2 -14 -6 -25 -7 -25 -1 0 -5 11 -7 25 -3 16 -1 25 7
25 8 0 10 -9 7 -25z m36 -11 c-3 -14 -5 -12 -10 9 -3 19 -2 25 4 19 6 -6 8
-18 6 -28z m60 11 c-3 -3 -9 2 -12 12 -6 14 -5 15 5 6 7 -7 10 -15 7 -18z m42
21 c0 -3 -4 -8 -10 -11 -5 -3 -10 -1 -10 4 0 6 5 11 10 11 6 0 10 -2 10 -4z
m22 -18 c-4 -18 -2 -20 16 -16 12 4 20 2 16 -3 -15 -24 -51 -1 -40 26 8 23 15
18 8 -7z m38 12 c0 -5 -2 -10 -4 -10 -3 0 -8 5 -11 10 -3 6 -1 10 4 10 6 0 11
-4 11 -10z m32 -15 c-2 -14 -6 -25 -8 -25 -2 0 -4 11 -4 25 0 14 4 25 9 25 4
0 6 -11 3 -25z m241 5 c-3 -12 -8 -19 -11 -16 -5 6 5 36 12 36 2 0 2 -9 -1
-20z m37 10 c0 -5 -2 -10 -4 -10 -3 0 -8 5 -11 10 -3 6 -1 10 4 10 6 0 11 -4
11 -10z m53 -9 c-3 -13 1 -21 14 -24 15 -4 15 -5 1 -6 -20 -1 -32 15 -24 34 8
22 15 18 9 -4z m67 15 c0 -3 -4 -8 -10 -11 -5 -3 -10 -1 -10 4 0 6 5 11 10 11
6 0 10 -2 10 -4z m143 -15 c-3 -13 1 -21 14 -24 15 -4 15 -5 1 -6 -20 -1 -32
15 -24 34 8 22 15 18 9 -4z m60 0 c-3 -13 1 -21 14 -24 15 -4 15 -5 1 -6 -20
-1 -32 15 -24 34 8 22 15 18 9 -4z m1820 -1 c-3 -11 -7 -20 -9 -20 -2 0 -4 9
-4 20 0 11 4 20 9 20 5 0 7 -9 4 -20z m35 -11 c-3 -8 -7 -3 -11 10 -4 17 -3
21 5 13 5 -5 8 -16 6 -23z m110 5 c0 -17 -4 -22 -11 -15 -5 5 -7 17 -4 25 9
23 15 19 15 -10z m85 -20 c-6 -16 -33 -19 -33 -3 0 5 4 8 9 4 5 -3 12 -1 15 4
3 5 -1 11 -9 15 -8 3 -15 10 -15 16 0 5 9 2 19 -7 11 -9 17 -22 14 -29z m147
36 c0 -5 -4 -10 -10 -10 -5 0 -10 5 -10 10 0 6 5 10 10 10 6 0 10 -4 10 -10z
m66 -5 c6 16 8 16 16 1 5 -9 13 -14 18 -11 4 3 6 -5 2 -17 l-5 -22 -8 22 c-10
27 -18 28 -27 2 -7 -18 -9 -17 -19 12 -11 30 -11 31 2 14 14 -18 15 -18 21 -1z
m104 5 c0 -5 -5 -10 -11 -10 -5 0 -7 5 -4 10 3 6 8 10 11 10 2 0 4 -4 4 -10z
m87 -37 c6 -2 13 8 15 24 l3 28 6 -31 c4 -23 1 -31 -10 -31 -24 0 -41 17 -40
41 1 19 2 19 8 -3 4 -14 12 -26 18 -28z m95 17 c-2 -16 -6 -30 -8 -30 -2 0 -4
14 -4 30 0 17 4 30 8 30 5 0 7 -13 4 -30z m36 -11 c-3 -20 -5 -19 -9 9 -3 20
-2 29 4 23 5 -5 7 -19 5 -32z m48 19 c-1 -13 4 -22 12 -20 6 1 12 -2 12 -8 0
-15 -16 -12 -30 5 -7 8 -10 22 -6 30 8 21 13 19 12 -7z m57 3 c-5 -20 18 -42
25 -23 5 16 19 15 19 -1 0 -18 -33 -19 -47 -1 -7 7 -10 21 -6 29 8 21 15 19 9
-4z m84 -28 c6 -2 13 8 16 24 l4 28 2 -28 c0 -17 -5 -30 -15 -34 -18 -7 -34
13 -33 42 1 17 2 16 8 -4 4 -14 12 -26 18 -28z m85 0 c6 -7 7 -13 3 -13 -15 0
-33 34 -27 50 5 12 7 11 10 -5 2 -11 9 -26 14 -32z m15 25 c-3 -8 -6 -5 -6 6
-1 11 2 17 5 13 3 -3 4 -12 1 -19z m43 18 c0 -3 -4 -8 -10 -11 -5 -3 -10 -1
-10 4 0 6 5 11 10 11 6 0 10 -2 10 -4z m-3343 -31 c-7 -16 -47 -21 -47 -5 0 5
7 7 15 4 9 -4 18 1 21 10 4 9 9 15 11 12 3 -3 3 -12 0 -21z m-105 -2 c8 3 21
1 28 -3 9 -5 1 -8 -20 -7 -20 1 -35 8 -37 17 -4 12 -3 13 5 1 6 -8 16 -11 24
-8z m418 -5 c0 -4 -9 -8 -20 -8 -11 0 -20 4 -20 8 0 4 9 8 20 8 11 0 20 -4 20
-8z m2330 8 c0 -3 -4 -8 -10 -11 -5 -3 -10 -1 -10 4 0 6 5 11 10 11 6 0 10 -2
10 -4z m130 -6 c0 -5 -2 -10 -4 -10 -3 0 -8 5 -11 10 -3 6 -1 10 4 10 6 0 11
-4 11 -10z m40 0 c0 -5 -2 -10 -4 -10 -3 0 -8 5 -11 10 -3 6 -1 10 4 10 6 0
11 -4 11 -10z m530 -5 c7 -9 8 -15 2 -15 -5 0 -12 7 -16 15 -3 8 -4 15 -2 15
2 0 9 -7 16 -15z m-3657 -2 c-7 -2 -19 -2 -25 0 -7 3 -2 5 12 5 14 0 19 -2 13
-5z m2632 -3 c3 -5 1 -10 -4 -10 -6 0 -11 5 -11 10 0 6 2 10 4 10 3 0 8 -4 11
-10z m40 0 c3 -5 1 -10 -4 -10 -6 0 -11 5 -11 10 0 6 2 10 4 10 3 0 8 -4 11
-10z m-4883 -34 c-10 -14 -22 -22 -26 -19 -3 4 4 17 16 30 28 30 36 22 10 -11z
m5035 28 c-3 -3 -12 -4 -19 -1 -8 3 -5 6 6 6 11 1 17 -2 13 -5z"/>
<path d="M3628 1813 c6 -2 18 -2 25 0 6 3 1 5 -13 5 -14 0 -19 -2 -12 -5z"/>
<path d="M4207 1813 c-16 -15 -6 -33 18 -33 18 0 25 5 25 20 0 20 -28 28 -43
13z"/>
<path d="M1427 1474 c-4 -4 -7 -36 -7 -71 0 -57 2 -63 20 -63 19 0 21 5 18 67
-3 61 -14 84 -31 67z"/>
<path d="M3086 1471 c-8 -12 -10 -120 -3 -127 3 -4 13 -4 22 -1 21 9 22 122 0
130 -8 4 -16 3 -19 -2z"/>
<path d="M3747 1474 c-4 -4 -7 -36 -7 -71 0 -57 2 -63 20 -63 19 0 21 5 18 67
-3 61 -14 84 -31 67z"/>
<path d="M5144 1465 c-9 -22 4 -35 34 -35 41 0 59 15 43 34 -17 20 -70 21 -77
1z"/>
<path d="M6185 1465 c-3 -8 -7 -21 -9 -28 -6 -21 10 -41 28 -34 21 8 21 63 1
71 -9 3 -18 -1 -20 -9z"/>
<path d="M80 969 c0 -5 5 -7 10 -4 6 3 10 8 10 11 0 2 -4 4 -10 4 -5 0 -10 -5
-10 -11z"/>
<path d="M7 244 c-17 -17 12 -24 99 -24 l94 0 0 -50 c0 -49 1 -50 29 -50 28 0
30 2 33 48 l3 47 98 3 c72 2 97 6 94 15 -3 9 -62 13 -223 15 -121 1 -223 -1
-227 -4z"/>
<path d="M143 203 c-27 -4 -33 -9 -33 -29 0 -15 -6 -24 -15 -24 -9 0 -15 9
-15 25 0 23 -4 25 -41 25 l-40 0 3 -37 3 -38 88 -3 87 -3 0 46 c0 25 -1 44 -2
43 -2 0 -18 -3 -35 -5z"/>
<path d="M280 160 c0 -39 1 -40 35 -40 24 0 35 5 35 15 0 8 4 15 9 15 5 0 11
-7 15 -15 3 -10 19 -15 46 -15 l40 0 0 40 0 40 -41 0 c-24 0 -38 -4 -34 -10 3
-5 2 -10 -4 -10 -5 0 -13 5 -16 10 -3 6 -24 10 -46 10 -39 0 -39 0 -39 -40z"/>
<path d="M565 140 c-8 -13 3 -30 18 -29 9 0 9 2 0 6 -21 8 -15 26 7 20 11 -3
18 -1 14 4 -7 12 -31 11 -39 -1z"/>
<path d="M732 110 c0 -19 2 -27 5 -17 2 9 2 25 0 35 -3 9 -5 1 -5 -18z"/>
<path d="M882 100 c0 -14 2 -19 5 -12 2 6 2 18 0 25 -3 6 -5 1 -5 -13z"/>
<path d="M912 100 c0 -14 2 -19 5 -12 2 6 2 18 0 25 -3 6 -5 1 -5 -13z"/>
<path d="M601 94 c0 -11 3 -14 6 -6 3 7 2 16 -1 19 -3 4 -6 -2 -5 -13z"/>
</g>
</svg>
