<?xml version="1.0" standalone="no"?>
<!DOCTYPE svg PUBLIC "-//W3C//DTD SVG 20010904//EN"
 "http://www.w3.org/TR/2001/REC-SVG-20010904/DTD/svg10.dtd">
<svg version="1.0" xmlns="http://www.w3.org/2000/svg"
 width="814.000000pt" height="252.000000pt" viewBox="0 0 814.000000 252.000000"
 preserveAspectRatio="xMidYMid meet">

<g transform="translate(0.000000,252.000000) scale(0.100000,-0.100000)"
fill="#000000" stroke="none">
<path d="M748 1973 l-3 -66 -70 -29 c-38 -17 -82 -35 -97 -41 -26 -11 -31 -8
-76 36 l-48 47 -87 -88 c-48 -48 -87 -92 -87 -97 0 -5 19 -29 42 -52 39 -40
41 -45 31 -71 -53 -127 -67 -158 -77 -164 -6 -4 -37 -8 -68 -8 l-58 0 0 -130
0 -129 66 -3 c47 -2 69 -7 74 -18 19 -38 70 -166 70 -175 0 -5 -19 -29 -42
-52 l-42 -43 89 -90 89 -90 41 40 c40 39 79 51 101 31 5 -4 42 -21 82 -36 l72
-27 0 -64 0 -64 65 0 66 0 -2 95 -2 95 -31 0 c-104 0 -255 68 -340 154 -106
106 -156 229 -157 383 0 154 55 279 171 387 89 82 171 118 321 141 l36 5 2 95
2 95 -65 0 -65 0 -3 -67z"/>
<path d="M7085 1973 c-57 -8 -160 -43 -208 -70 -63 -37 -148 -122 -180 -181
-37 -69 -61 -167 -48 -203 9 -26 5 -34 -35 -86 -123 -158 -134 -175 -134 -209
0 -27 6 -36 30 -49 16 -8 36 -15 45 -15 25 0 29 -27 10 -76 -16 -43 -16 -46 1
-65 15 -17 16 -22 4 -44 -11 -21 -11 -27 4 -44 21 -23 22 -43 5 -103 -16 -57
-6 -92 34 -122 24 -18 47 -22 155 -26 l127 -5 13 -28 c7 -15 19 -55 26 -88
l12 -61 22 138 c43 281 43 285 -48 424 -84 126 -113 214 -118 356 -3 85 0 126
13 170 55 189 198 318 415 373 l75 19 -95 0 c-52 -1 -108 -3 -125 -5z"/>
<path d="M7422 1956 c91 -27 174 -73 240 -134 136 -128 184 -296 143 -507 -17
-90 -47 -159 -105 -245 -95 -140 -98 -172 -38 -510 l11 -65 13 62 c7 34 19 75
26 90 l13 28 133 5 134 5 29 33 c34 38 35 47 12 119 -16 52 -16 53 6 84 21 28
22 34 10 56 -12 22 -11 26 4 34 21 12 21 37 2 63 -23 31 -19 73 8 81 67 19 77
27 77 60 0 34 -12 53 -122 193 -49 61 -50 63 -52 140 -7 230 -217 409 -491
418 -98 4 -99 4 -53 -10z"/>
<path d="M7143 1845 c-136 -37 -231 -131 -258 -255 -15 -69 -7 -222 16 -295
19 -63 29 -77 101 -148 84 -83 117 -139 118 -197 l0 -35 85 3 85 3 0 470 0
469 -47 -1 c-27 0 -72 -7 -100 -14z"/>
<path d="M7407 1849 c7 -7 15 -10 18 -7 3 3 -2 9 -12 12 -14 6 -15 5 -6 -5z"/>
<path d="M7335 1839 c-4 -6 -5 -12 -2 -15 2 -3 7 2 10 11 7 17 1 20 -8 4z"/>
<path d="M7427 1790 c-3 -11 -1 -20 4 -20 5 0 9 9 9 20 0 11 -2 20 -4 20 -2 0
-6 -9 -9 -20z"/>
<path d="M7330 1772 c0 -12 3 -12 15 -2 8 7 15 13 15 15 0 1 -7 2 -15 2 -8 0
-15 -7 -15 -15z"/>
<path d="M772 1754 c-90 -24 -157 -63 -219 -128 -125 -130 -164 -307 -102
-470 25 -68 78 -148 91 -139 6 3 8 2 5 -4 -14 -23 115 -112 199 -138 27 -8 66
-15 87 -15 l37 0 0 455 0 455 -22 -1 c-13 0 -47 -7 -76 -15z"/>
<path d="M7568 1735 c9 -11 18 -22 19 -24 2 -2 3 7 3 20 0 18 -5 25 -20 25
-18 0 -18 -1 -2 -21z"/>
<path d="M7310 1724 c0 -5 7 -18 15 -28 8 -11 15 -16 15 -10 0 5 -7 18 -15 28
-8 11 -15 16 -15 10z"/>
<path d="M7501 1693 c0 -13 -6 -23 -13 -23 -6 0 -9 -2 -6 -5 3 -3 16 -1 29 4
13 5 19 10 12 10 -6 1 -14 9 -16 19 -4 13 -5 11 -6 -5z"/>
<path d="M7628 1680 c-3 -19 0 -30 7 -30 7 0 10 11 7 30 -2 17 -5 30 -7 30 -2
0 -5 -13 -7 -30z"/>
<path d="M7326 1657 c3 -10 9 -15 12 -12 3 3 0 11 -7 18 -10 9 -11 8 -5 -6z"/>
<path d="M7390 1655 c0 -8 4 -15 10 -15 5 0 7 7 4 15 -4 8 -8 15 -10 15 -2 0
-4 -7 -4 -15z"/>
<path d="M7456 1657 c3 -10 9 -15 12 -12 3 3 0 11 -7 18 -10 9 -11 8 -5 -6z"/>
<path d="M7561 1634 c0 -11 3 -14 6 -6 3 7 2 16 -1 19 -3 4 -6 -2 -5 -13z"/>
<path d="M7555 1600 c3 -5 8 -10 11 -10 2 0 4 5 4 10 0 6 -5 10 -11 10 -5 0
-7 -4 -4 -10z"/>
<path d="M7596 1595 c-9 -26 -7 -32 5 -12 6 10 9 21 6 23 -2 3 -7 -2 -11 -11z"/>
<path d="M7407 1574 c2 -7 11 -10 19 -7 19 7 18 10 -5 16 -13 3 -18 1 -14 -9z"/>
<path d="M7480 1564 c8 -10 15 -20 16 -22 1 -2 4 1 7 5 3 5 -4 15 -16 23 -21
12 -21 12 -7 -6z"/>
<path d="M7535 1560 c-16 -7 -17 -9 -3 -9 9 -1 20 4 23 9 7 11 7 11 -20 0z"/>
<path d="M7400 1526 c0 -13 -6 -27 -12 -29 -7 -3 -4 -6 8 -6 17 -1 20 4 16 29
-5 36 -12 39 -12 6z"/>
<path d="M7337 1529 c7 -7 15 -10 18 -7 3 3 -2 9 -12 12 -14 6 -15 5 -6 -5z"/>
<path d="M7620 1530 c-9 -6 -10 -10 -3 -10 6 0 15 5 18 10 8 12 4 12 -15 0z"/>
<path d="M7676 1513 c-6 -14 -5 -15 5 -6 7 7 10 15 7 18 -3 3 -9 -2 -12 -12z"/>
<path d="M7486 1486 c5 -13 1 -24 -12 -34 -10 -8 -13 -12 -5 -10 25 7 37 36
23 50 -11 11 -12 9 -6 -6z"/>
<path d="M7700 1446 c0 -2 7 -7 16 -10 8 -3 12 -2 9 4 -6 10 -25 14 -25 6z"/>
<path d="M7420 1410 c-9 -6 -10 -10 -3 -10 6 0 15 5 18 10 8 12 4 12 -15 0z"/>
<path d="M7321 1375 c-1 -5 3 -16 8 -24 6 -9 5 -21 -2 -32 -7 -12 -8 -24 -1
-40 9 -20 11 -21 17 -5 4 10 3 15 -3 11 -13 -8 -13 28 -1 41 6 5 4 19 -4 34
-8 14 -14 21 -14 15z"/>
<path d="M7719 1363 c-13 -16 -12 -17 4 -4 9 7 17 15 17 17 0 8 -8 3 -21 -13z"/>
<path d="M7482 1350 c0 -14 2 -19 5 -12 2 6 2 18 0 25 -3 6 -5 1 -5 -13z"/>
<path d="M7556 1355 c-11 -8 -15 -15 -9 -15 6 0 16 7 23 15 16 19 11 19 -14 0z"/>
<path d="M7656 1334 c-3 -8 -2 -12 4 -9 6 3 13 -1 16 -9 3 -9 13 -16 22 -16
12 0 10 5 -7 17 -23 16 -23 17 -5 24 18 7 18 8 -2 8 -12 1 -25 -6 -28 -15z"/>
<path d="M7440 1281 c0 -11 -6 -22 -12 -24 -8 -3 -6 -6 5 -6 12 -1 17 7 17 24
0 14 -2 25 -5 25 -3 0 -5 -9 -5 -19z"/>
<path d="M7567 1231 c-4 -17 -3 -21 5 -13 5 5 8 16 6 23 -3 8 -7 3 -11 -10z"/>
<path d="M7500 1210 c-8 -5 -10 -10 -5 -10 6 0 17 5 25 10 8 5 11 10 5 10 -5
0 -17 -5 -25 -10z"/>
<path d="M7408 1198 c5 -5 16 -8 23 -6 8 3 3 7 -10 11 -17 4 -21 3 -13 -5z"/>
<path d="M7686 1195 c-3 -8 -1 -15 4 -15 6 0 10 7 10 15 0 8 -2 15 -4 15 -2 0
-6 -7 -10 -15z"/>
<path d="M7395 1170 c-3 -5 -1 -10 4 -10 6 0 11 5 11 10 0 6 -2 10 -4 10 -3 0
-8 -4 -11 -10z"/>
<path d="M7468 1143 c5 -21 7 -23 10 -9 2 10 0 22 -6 28 -6 6 -7 0 -4 -19z"/>
<path d="M7528 1133 c6 -2 18 -2 25 0 6 3 1 5 -13 5 -14 0 -19 -2 -12 -5z"/>
<path d="M7436 1101 c-4 -5 3 -7 14 -4 23 6 26 13 6 13 -8 0 -17 -4 -20 -9z"/>
<path d="M7310 1086 c0 -8 4 -17 9 -20 5 -4 7 3 4 14 -6 23 -13 26 -13 6z"/>
<path d="M7406 1065 c-11 -8 -15 -15 -9 -15 6 0 16 7 23 15 16 19 11 19 -14 0z"/>
<path d="M7490 1069 c0 -5 9 -9 20 -9 11 0 20 2 20 4 0 2 -9 6 -20 9 -11 3
-20 1 -20 -4z"/>
<path d="M7588 1063 c7 -3 16 -2 19 1 4 3 -2 6 -13 5 -11 0 -14 -3 -6 -6z"/>
<path d="M7620 1055 c0 -8 2 -15 4 -15 2 0 6 7 10 15 3 8 1 15 -4 15 -6 0 -10
-7 -10 -15z"/>
<path d="M7481 1016 c-9 -11 -9 -16 1 -22 7 -4 10 -4 6 1 -4 4 -3 14 3 22 6 7
9 13 6 13 -2 0 -10 -6 -16 -14z"/>
<path d="M7435 1010 c-3 -6 1 -7 9 -4 18 7 21 14 7 14 -6 0 -13 -4 -16 -10z"/>
<path d="M7322 971 c2 -8 15 -21 29 -30 19 -11 21 -12 9 0 -8 8 -21 21 -29 29
-11 12 -12 12 -9 1z"/>
<path d="M7388 923 c6 -2 18 -2 25 0 6 3 1 5 -13 5 -14 0 -19 -2 -12 -5z"/>
<path d="M7120 860 l0 -30 180 0 180 0 0 30 0 30 -180 0 -180 0 0 -30z"/>
<path d="M7140 775 l0 -25 155 0 155 0 0 25 0 25 -155 0 -155 0 0 -25z"/>
<path d="M7160 690 l0 -30 135 0 135 0 0 30 0 30 -135 0 -135 0 0 -30z"/>
</g>
</svg>
